<?xml version="1.0" encoding="UTF-8" standalone="no"?>
<!-- Created with Inkscape (http://www.inkscape.org/) -->

<svg
   xmlns:dc="http://purl.org/dc/elements/1.1/"
   xmlns:cc="http://creativecommons.org/ns#"
   xmlns:rdf="http://www.w3.org/1999/02/22-rdf-syntax-ns#"
   xmlns:svg="http://www.w3.org/2000/svg"
   xmlns="http://www.w3.org/2000/svg"
   xmlns:sodipodi="http://sodipodi.sourceforge.net/DTD/sodipodi-0.dtd"
   xmlns:inkscape="http://www.inkscape.org/namespaces/inkscape"
   width="500"
   height="500"
   viewBox="0 0 500.00002 499.99998"
   id="svg2998"
   version="1.1"
   inkscape:version="0.91pre3 r13670"
   sodipodi:docname="icon_email.svg">
  <defs
     id="defs3000">
    <pattern
       y="0"
       x="0"
       height="6"
       width="6"
       patternUnits="userSpaceOnUse"
       id="EMFhbasepattern" />
    <pattern
       y="0"
       x="0"
       height="6"
       width="6"
       patternUnits="userSpaceOnUse"
       id="EMFhbasepattern-5" />
    <pattern
       y="0"
       x="0"
       height="6"
       width="6"
       patternUnits="userSpaceOnUse"
       id="EMFhbasepattern-7" />
  </defs>
  <sodipodi:namedview
     id="base"
     pagecolor="#ffffff"
     bordercolor="#666666"
     borderopacity="1.0"
     inkscape:pageopacity="0.0"
     inkscape:pageshadow="2"
     inkscape:zoom="0.49497475"
     inkscape:cx="184.91661"
     inkscape:cy="0.21532967"
     inkscape:document-units="px"
     inkscape:current-layer="layer1"
     showgrid="false"
     fit-margin-top="0"
     fit-margin-left="0"
     fit-margin-right="0"
     fit-margin-bottom="0"
     inkscape:window-width="1680"
     inkscape:window-height="998"
     inkscape:window-x="-8"
     inkscape:window-y="-8"
     inkscape:window-maximized="1" />
  <metadata
     id="metadata3003">
    <rdf:RDF>
      <cc:Work
         rdf:about="">
        <dc:format>image/svg+xml</dc:format>
        <dc:type
           rdf:resource="http://purl.org/dc/dcmitype/StillImage" />
        <dc:title></dc:title>
      </cc:Work>
    </rdf:RDF>
  </metadata>
  <g
     inkscape:label="Layer 1"
     inkscape:groupmode="layer"
     id="layer1"
     transform="translate(2869.1182,-1557.0226)">
    <path
       fill="#ffffff"
       d=""
       id="path4156"
       inkscape:connector-curvature="0" />
    <path
       fill="#ffffff"
       d="m -2651.7218,2050.0363 c -68.5729,-8.2717 -113.2505,-27.8087 -152.1742,-66.544 -38.456,-38.2696 -58.8085,-83.831 -64.2925,-143.9251 -2.3379,-25.6198 -0.2007,-56.9907 5.6682,-83.1993 9.9989,-44.6526 31.3992,-83.4392 63.5665,-115.2104 44.4849,-43.9371 98.983,-67.7088 171.0544,-74.6132 139.3732,-13.3517 245.121,60.6166 257.6438,180.2165 6.086,58.1243 -12.4413,113.9749 -51.0228,153.8083 -37.5401,38.7583 -92.9851,57.1359 -131.909,43.722 -12.516,-4.3132 -24.7273,-16.6571 -26.3178,-26.6033 l -1.1968,-7.4846 -10.4435,9.549 c -36.3681,33.2541 -94.4281,33.5211 -127.3634,0.586 -21.0114,-21.0115 -29.8047,-49.0261 -28.2588,-90.0298 2.4318,-64.5018 32.7034,-121.2327 79.5517,-149.0845 19.1537,-11.3871 34.1869,-15.2488 59.1284,-15.1886 19.0191,0.046 22.4692,0.5754 31.5652,4.8447 10.495,4.9258 16.3769,9.6554 23.7047,19.0612 2.3094,2.9642 4.4869,5.0531 4.8389,4.642 0.352,-0.4113 1.8026,-4.5077 3.2234,-9.1032 l 2.5833,-8.3555 32.9577,-0.5071 c 18.1268,-0.2789 32.9578,0.019 32.9578,0.6514 0,0.637 -2.4625,9.6385 -5.4721,20.0032 -14.1614,48.7687 -45.1128,166.5543 -45.9973,175.0426 -1.3239,12.7057 2.9378,17.4187 15.7265,17.3924 22.9417,-0.046 49.7803,-22.8736 64.8151,-55.1254 10.5317,-22.5923 14.1645,-42.0192 13.1247,-70.1887 -1.0538,-28.5509 -3.962,-40.552 -15.2982,-63.1303 -16.0407,-31.9485 -41.9622,-54.4045 -75.7224,-65.5992 -63.4776,-21.0487 -138.5481,-12.7209 -191.2264,21.2131 -27.23,17.5408 -46.038,37.7022 -61.4929,65.918 -29.9416,54.6634 -28.7598,134.7819 2.7712,187.8562 8.8121,14.8328 27.9191,35.7739 42.4567,46.532 35.6926,26.4132 88.2246,39.1445 143.039,34.6662 44.0418,-3.5983 75.752,-12.5163 108.1454,-30.4143 16.2858,-8.9982 18.2403,-9.6584 20.5484,-6.9405 1.4028,1.6518 9.0267,12.4367 16.942,23.9663 11.6871,17.0242 13.9739,21.4658 12.1708,23.6383 -3.4624,4.1719 -45.7246,24.4238 -61.551,29.4948 -22.2379,7.1254 -55.9916,14.1901 -81.3886,17.0344 -20.9925,2.3513 -62.8913,3.117 -77.0561,1.4084 z m 23.8584,-166.2743 c 11.3705,-5.7022 23.2385,-17.9036 32.0862,-32.9877 15.1141,-25.767 28.897,-78.5453 26.0108,-99.602 -1.522,-11.1046 -7.3073,-21.8026 -14.6052,-27.0079 -4.9765,-3.5494 -8.4296,-4.3341 -19.0741,-4.3341 -10.9653,0 -14.4141,0.8328 -22.0594,5.3263 -13.7826,8.1013 -24.3627,20.4253 -33.551,39.0814 -12.5154,25.4117 -18.0211,46.1182 -19.1145,71.8884 -1.3651,32.1675 3.8782,44.7665 21.1666,50.8621 8.4697,2.9862 19.0988,1.8092 29.1406,-3.2265 z"
       id="path4150"
       inkscape:connector-curvature="0" />
  </g>
</svg>
